<mxfile host="app.diagrams.net" modified="2023-07-24T03:36:29.816Z" agent="Mozilla/5.0 (Macintosh; Intel Mac OS X 10_15_7) AppleWebKit/537.36 (KHTML, like Gecko) Chrome/114.0.0.0 Safari/537.36" version="21.6.2" etag="nKxMxwv-y3rCOwVuyln5" type="github">
  <diagram name="第 1 页" id="2FfmDNHcDN7cyOoLiR-4">
    <mxGraphModel>
      <root>
        <mxCell id="0" />
        <mxCell id="1" parent="0" />
      </root>
    </mxGraphModel>
  </diagram>
</mxfile>
